# xmcd
#
# Track frame offsets: 
#        150
#        15274
#        29788
#        43861
#        60957
#        73864
#        87055
#        100404
#        113073
#        127575
#        145311
#        165560
#        179629
#
# Disc length: 2574 seconds
#
# Revision: 0
# Processed by: cddbd v1.5.1PL2 Copyright (c) Steve Scherf et al.
# Submitted via: ExactAudioCopy v0.95b4
#
DISCID=aa0a0c0d
DTITLE=Alison Krauss - Live With Union Station
DYEAR=2003
DGENRE=Country
TTITLE0=01 - Let Me Touch You For Awhile
TTITLE1=02 - Choctaw Hayride
TTITLE2=03 - The Lucky One
TTITLE3=04 - Baby Now That I've Found You
TTITLE4=05 - Bright Sunny South
TTITLE5=06 - Every Time You Say Goodbye
TTITLE6=07 - Tiny Broken Heart
TTITLE7=08 - Cluck Old Hen
TTITLE8=09 - Stay
TTITLE9=10 - Broadway
TTITLE10=11 - Ghost In This House
TTITLE11=12 - Forget About It
TTITLE12=13 - Faraway Land
EXTD=
EXTT0=
EXTT1=
EXTT2=
EXTT3=
EXTT4=
EXTT5=
EXTT6=
EXTT7=
EXTT8=
EXTT9=
EXTT10=
EXTT11=
EXTT12=
PLAYORDER=
